<?xml version="1.0" encoding="UTF-8"?>
<svg width="48" height="48" viewBox="0 0 48 48" fill="none" xmlns="http://www.w3.org/2000/svg">
  <rect width="48" height="48" rx="8" fill="#FFFFFF"/>
  <path d="M24.517 15.006C26.965 15.006 28.892 15.892 30.298 17.2L35.2 12.4C31.892 9.4 28.517 8 24.517 8C18.517 8 13.292 11.4 10.892 16.4L16.517 20.8C17.692 17.4 20.892 15.006 24.517 15.006Z" fill="#EA4335"/>
  <path d="M37.517 24.2C37.517 22.8 37.317 21.8 36.917 20.6H24.517V27.4H32.117C31.717 29.4 30.517 30.8 28.517 31.8L34.117 36.2C37.117 33.4 37.517 29.2 37.517 24.2Z" fill="#4285F4"/>
  <path d="M16.517 27.2C16.117 26.2 15.917 25.2 15.917 24C15.917 22.8 16.117 21.8 16.517 20.8L10.892 16.4C9.717 18.6 9.117 21.2 9.117 24C9.117 26.8 9.717 29.4 10.892 31.6L16.517 27.2Z" fill="#FBBC05"/>
  <path d="M24.517 39C28.517 39 31.892 37.6 34.117 36.2L28.517 31.8C27.117 32.8 25.917 33.4 24.517 33.4C20.892 33.4 17.692 31 16.517 27.6L10.892 32C13.292 37 18.517 39 24.517 39Z" fill="#34A853"/>
</svg> 