<?xml version="1.0" encoding="UTF-8"?>
<svg width="48" height="48" viewBox="0 0 48 48" fill="none" xmlns="http://www.w3.org/2000/svg">
  <rect width="48" height="48" rx="8" fill="#F3F4F6"/>
  <path d="M24 12C17.373 12 12 17.373 12 24C12 30.627 17.373 36 24 36C30.627 36 36 30.627 36 24C36 17.373 30.627 12 24 12ZM24 14C29.523 14 34 18.477 34 24C34 29.523 29.523 34 24 34C18.477 34 14 29.523 14 24C14 18.477 18.477 14 24 14Z" fill="#4B5563"/>
  <path d="M27.697 19.004C27.475 18.782 27.115 18.782 26.893 19.004L22.093 23.804C21.871 24.026 21.871 24.386 22.093 24.608L26.893 29.408C27.115 29.63 27.475 29.63 27.697 29.408C27.919 29.186 27.919 28.826 27.697 28.604L23.3 24.207L27.697 20.01C27.919 19.788 27.919 19.428 27.697 19.204V19.004Z" fill="#4B5563"/>
</svg> 