<?xml version="1.0" encoding="UTF-8"?>
<svg width="48" height="16" viewBox="0 0 48 16" fill="none" xmlns="http://www.w3.org/2000/svg">
  <path d="M21.4 4.5L17.2 11.5H14.6L12.6 5.7C12.5 5.3 12.4 5.2 12 5C11.2 4.7 10 4.4 9 4.2L9.1 4H13.3C13.8 4 14.2 4.3 14.3 4.8L15.4 9.3L17.9 4H21.4V4.5Z" fill="#1434CB"/>
  <path d="M30.8 8.8C30.8 6.8 27.8 6.7 27.8 5.9C27.8 5.7 28 5.4 28.5 5.3C28.8 5.3 29.7 5.2 30.7 5.7L31.2 3.4C30.5 3.2 29.7 3 28.7 3C25.5 3 23.3 4.6 23.3 6.9C23.3 8.6 24.9 9.5 26.1 10C27.3 10.5 27.8 10.8 27.8 11.3C27.8 11.9 27.1 12.2 26.4 12.2C25.2 12.2 24.3 11.9 23.6 11.6L23.1 14C23.8 14.3 25.2 14.5 26.6 14.5C30 14.5 32.2 12.9 32.2 10.5C32.2 9.1 31.5 8 30.8 8.8Z" fill="#1434CB"/>
  <path d="M37.3 4H34.7L31 11.5H34.4L34.9 10.2H38.1L38.4 11.5H41.4L39 4H37.3ZM35.7 8.3L36.8 5.7L37.5 8.3H35.7Z" fill="#1434CB"/>
  <path d="M26.6 4L24 11.5H20.8L23.4 4H26.6Z" fill="#1434CB"/>
</svg> 